HIERARCHY
ROOT Hips
{
  OFFSET 263.056 91.6644 -274.608
  CHANNELS 6 Xposition Yposition Zposition Zrotation Xrotation Yrotation
  JOINT LeftUpLeg
  {
    OFFSET 8.64259 1.95398 -2.38835
    CHANNELS 3 Zrotation Xrotation Yrotation
    JOINT LeftLeg
    {
      OFFSET 43.7702 0 0
      CHANNELS 3 Zrotation Xrotation Yrotation
      JOINT LeftFoot
      {
        OFFSET 40.6238 0 0
        CHANNELS 3 Zrotation Xrotation Yrotation
        JOINT LeftToeBase
        {
          OFFSET 12.7242 0 0
          CHANNELS 3 Zrotation Xrotation Yrotation
          End Site
          {
            OFFSET 0 0 0
          }
        }
      }
    }
  }
  JOINT RightUpLeg
  {
    OFFSET -8.2249 1.95398 -2.59336
    CHANNELS 3 Zrotation Xrotation Yrotation
    JOINT RightLeg
    {
      OFFSET 43.5653 0 0
      CHANNELS 3 Zrotation Xrotation Yrotation
      JOINT RightFoot
      {
        OFFSET 40.6238 0 0
        CHANNELS 3 Zrotation Xrotation Yrotation
        JOINT RightToeBase
        {
          OFFSET 12.7242 0 0
          CHANNELS 3 Zrotation Xrotation Yrotation
          End Site
          {
            OFFSET 0 0 0
          }
        }
      }
    }
  }
  JOINT Spine
  {
    OFFSET 0.165834 0.87714 6.61349
    CHANNELS 3 Zrotation Xrotation Yrotation
    JOINT Spine1
    {
      OFFSET 7.38963 1.71661e-005 0
      CHANNELS 3 Zrotation Xrotation Yrotation
      JOINT Spine2
      {
        OFFSET 11.9445 1.14441e-005 0
        CHANNELS 3 Zrotation Xrotation Yrotation
        JOINT Spine3
        {
          OFFSET 14.7254 4.19617e-005 0
          CHANNELS 3 Zrotation Xrotation Yrotation
          JOINT Spine4
          {
            OFFSET 10.9679 0 0
            CHANNELS 3 Zrotation Xrotation Yrotation
            JOINT RightShoulder
            {
              OFFSET 2.46616 -1.6653 3.69651
              CHANNELS 3 Zrotation Xrotation Yrotation
              JOINT RightArm
              {
                OFFSET 13.0012 0 0
                CHANNELS 3 Zrotation Xrotation Yrotation
                JOINT RightForeArm
                {
                  OFFSET 28.7848 1.52588e-005 0
                  CHANNELS 3 Zrotation Xrotation Yrotation
                  JOINT RightHand
                  {
                    OFFSET 26.5688 1.52588e-005 0
                    CHANNELS 3 Zrotation Xrotation Yrotation
                    End Site
                    {
                      OFFSET 0 0 0
                    }
                  }
                }
              }
            }
            JOINT LeftShoulder
            {
              OFFSET 2.38034 -1.29275 -3.7523
              CHANNELS 3 Zrotation Xrotation Yrotation
              JOINT LeftArm
              {
                OFFSET 16.3182 6.10352e-005 0
                CHANNELS 3 Zrotation Xrotation Yrotation
                JOINT LeftForeArm
                {
                  OFFSET 27.0901 0 0
                  CHANNELS 3 Zrotation Xrotation Yrotation
                  JOINT LeftHand
                  {
                    OFFSET 24.5451 1.52588e-005 0
                    CHANNELS 3 Zrotation Xrotation Yrotation
                    End Site
                    {
                      OFFSET 0 0 0
                    }
                  }
                }
              }
            }
            JOINT Neck
            {
              OFFSET 5.0226 -0.0266342 0
              CHANNELS 3 Zrotation Xrotation Yrotation
              JOINT Head
              {
                OFFSET 6.69364 2.86102e-005 0
                CHANNELS 3 Zrotation Xrotation Yrotation
                End Site
                {
                  OFFSET 0 0 0
                }
              }
            }
          }
        }
      }
    }
  }
}
MOTION
Frames:	9
Frame Time:	0.0416667
17.0525 92.8717 2.08865 -87.8866 -22.5652 -91.2855 -168.797 -5.58685 96.0095 -12.6941 -5.07847 1.15174 56.4569 1.4215 11.0578 50.633 23.534 -1.57198 179.199 30.1288 87.4646 -17.8894 11.3878 0.497815 62.4995 -1.80927 -0.982134 39.2255 0.912833 9.32094 -1.01491 7.77402 -89.6429 11.3338 -1.85312 0.896253 -0.336159 -1.81188 0.976956 -22.8815 -2.03677 0.297688 -2.86883 -2.03681 0.297669 79.1806 -55.0736 -115.11 22.2736 -6.65811 18.8994 -11.4206 -17.257 -39.8753 -4.61496 -0.486003 3.81438 -103.772 -40.759 54.3673 -25.266 0.720398 6.95654 3.37535 -1.46979 -40.0645 15.419 0.969049 2.39198 6.17036 -5.32194 -1.10489 -3.2751 -5.01399 -3.28338 
11.3039 91.4841 3.47894 -88.5672 -19.8645 -91.4628 -167.489 -8.51687 97.8917 -16.3072 -3.58052 1.03618 55.9308 0.121977 7.6863 50.9754 25.6087 3.92923 179.151 34.1701 88.9081 -31.7423 6.55288 0.0530141 61.5645 -1.80134 -1.00758 38.5242 0.759533 7.49472 -1.09493 7.95663 -89.827 10.9677 -2.09998 0.545355 -0.701763 -2.07392 0.637277 -23.2506 -2.16674 -0.11128 -3.23794 -2.16675 -0.111285 79.1867 -54.9736 -115.139 21.8241 -5.58467 18.6577 -11.2723 -18.0435 -38.4426 -6.19179 -0.590388 4.00908 -105.02 -41.4356 52.7908 -23.8797 0.352781 6.2347 4.4156 -0.127097 -40.5938 14.3319 1.09158 3.67831 8.67466 -4.04285 0.609518 -4.48699 -4.06357 -2.39509 
3.18917 91.0621 4.29819 -86.8914 -18.4079 -89.9535 -166.021 -8.60568 102.11 -19.2776 1.5069 0.966383 47.1379 -6.44131 1.63527 47.7378 25.393 15.3309 179.73 35.245 91.9477 -39.8057 7.13541 -0.438578 64.6735 -2.3129 -1.25559 31.6824 -0.154829 9.38775 -1.31966 7.72526 -90.0051 11.4283 -2.62798 0.256065 -0.240041 -2.61414 0.371541 -22.7959 -2.58336 -0.54613 -2.78322 -2.58333 -0.546129 79.2397 -55.5311 -114.856 22.1543 -5.74259 18.1006 -10.8387 -18.4749 -37.5574 -6.05482 -0.593968 4.28047 -104.926 -41.7617 53.1006 -24.3602 1.11857 7.04747 2.92246 -1.54594 -37.6699 14.9069 0.938165 2.39821 9.34307 -2.48978 0.872731 -6.05302 -2.59704 -1.35841 
-4.74294 90.9227 4.35328 -87.309 -15.8041 -90.3517 -167.866 -3.65437 102.808 -32.9994 5.01846 1.70947 40.7712 -11.8399 0.065558 35.4271 7.58401 12.7047 -179.878 32.2822 94.6393 -44.8494 8.19422 -1.17228 70.9539 -4.08075 -2.11101 28.8808 -0.592234 9.63065 -1.33784 7.64448 -89.8971 11.5936 -2.61318 0.475318 -0.0748719 -2.58971 0.589945 -22.6312 -2.63512 -0.332582 -2.61853 -2.63513 -0.332581 79.5043 -54.5899 -114.837 25.2365 -6.01249 17.7344 -11.1969 -18.3814 -38.4018 -3.95852 -0.458047 4.18536 -104.282 -41.2909 53.848 -25.9266 1.4565 7.94903 2.45869 -1.75137 -32.8168 13.3936 0.703849 1.34832 8.73142 -1.35512 0.702241 -6.4829 -1.44481 -1.2296 
-11.8104 91.729 4.73063 -88.1596 -10.7323 -90.1213 -168.711 5.35787 100.606 -48.4387 12.8293 0.121759 45.9891 -8.4845 3.27746 38.058 11.111 10.1669 -178.731 25.7738 97.0743 -43.2125 6.38347 -2.20703 74.8959 -5.14255 -2.48446 29.691 -0.589147 11.6912 -0.888577 7.7486 -89.8827 11.3808 -1.71336 0.406039 -0.289122 -1.69382 0.481066 -22.8333 -1.75614 -0.127825 -2.8207 -1.75613 -0.127829 79.2837 -53.5566 -115.539 26.6107 -7.80388 16.0237 -12.5353 -19.3254 -41.0039 -3.13556 -0.426809 4.93079 -104.7 -42.1951 53.6613 -26.2581 1.89198 7.65537 2.99865 0.153627 -30.2485 14.0444 0.826933 1.98377 8.12142 -0.861161 1.26276 -6.08464 -1.07711 -1.32281 
-18.9544 93.295 5.08207 -87.7369 -5.76104 -91.0358 -169.077 13.9243 95.6602 -51.4745 16.9518 -2.15315 49.8377 -5.27098 5.3507 45.3025 20.6537 10.5241 -178.789 18.6432 96.4199 -38.3605 1.50969 -2.78197 75.8238 -5.00028 -2.36272 31.9234 -0.278862 13.3611 -0.411516 7.72807 -89.7556 11.419 -0.704689 0.558082 -0.251828 -0.679427 0.588551 -22.7882 -0.839834 0.320485 -2.77554 -0.839837 0.320485 79.8343 -52.3943 -115.197 27.0188 -9.14805 13.8148 -14.0325 -19.4331 -44.0895 -4.04352 -0.487293 4.58706 -104.598 -42.8194 54.1248 -28.1499 2.22261 7.88757 3.20135 0.91628 -29.9085 14.0984 0.917136 2.58192 6.95563 -0.652634 2.05732 -5.48083 -1.02297 -1.49715 
-25.9211 94.8456 5.42511 -87.8579 -2.31282 -91.5416 -170.735 20.6256 91.9921 -45.0065 15.4757 -2.4501 54.0651 -1.23668 7.8641 49.9248 25.4837 7.31786 -179.29 10.5108 95.4945 -31.3696 -1.91272 -2.6182 73.9585 -4.55471 -2.20633 35.2617 0.306262 11.7641 -0.0402489 7.74856 -89.7529 11.3765 0.0351792 0.488524 -0.294507 0.0566528 0.486501 -22.8289 -0.113288 0.476513 -2.81625 -0.113257 0.476521 80.2934 -51.5487 -114.856 26.6908 -9.06281 12.9702 -15.4727 -17.4867 -48.2673 -5.67335 -0.593069 4.71106 -104.263 -43.0428 54.7401 -30.7938 2.99902 8.74913 3.44003 1.86404 -30.7146 13.0371 0.761808 1.93126 5.70115 -0.651071 2.65343 -4.66119 -1.12023 -1.74288 
-32.8627 95.3508 5.8997 -87.2706 1.06919 -91.9017 -172.517 25.1843 89.5519 -30.994 9.29128 -1.92524 57.631 0.780838 5.32628 47.0157 23.7984 13.6013 -179.526 3.88013 94.7221 -25.861 -4.98303 -2.97069 72.5735 -4.57768 -2.27708 37.8524 0.713753 9.204 0.241454 7.73114 -89.7211 11.41 0.610686 0.493958 -0.260901 0.631782 0.466604 -22.796 0.433988 0.654647 -2.78333 0.433967 0.654643 80.4767 -50.3264 -115.06 25.8491 -9.44425 11.5412 -15.5543 -15.4477 -51.5534 -7.45395 -0.686839 4.4014 -104.026 -43.5509 55.3412 -32.7216 3.25836 10.02 3.43818 1.62824 -31.5664 10.9438 0.528466 0.914452 5.78942 -0.0131589 3.77703 -4.46533 -0.705817 -2.29003 
-40.2156 94.758 6.44495 -86.5346 4.2696 -92.0982 -174.157 25.4793 89.1715 -9.02099 12.1564 -2.13192 56.1005 1.31071 9.35004 49.1644 27.1033 14.7401 179.736 -1.7547 93.7874 -22.4594 -5.49439 -3.22992 72.616 -4.83718 -2.40584 40.163 1.10174 10.7528 0.448956 7.68512 -89.6323 11.5006 1.06517 0.623812 -0.170025 1.09155 0.576325 -22.7063 0.828389 0.91508 -2.69366 0.828418 0.915093 80.3956 -50.0865 -115.273 24.1624 -9.7096 9.93136 -17.6931 -14.4621 -55.2304 -7.14165 -0.689907 4.82802 -104.231 -43.7169 55.1134 -33.8869 3.59002 11.4598 3.88719 2.7733 -31.9031 9.5251 0.376754 0.112246 7.00013 0.782427 4.39726 -5.65615 -0.0644058 -2.30982 
